<?xml version="1.0" encoding="utf-8"?>
<!-- Generator: Adobe Illustrator 19.1.0, SVG Export Plug-In . SVG Version: 6.00 Build 0)  -->
<svg version="1.1" id="图层_1" xmlns="http://www.w3.org/2000/svg" xmlns:xlink="http://www.w3.org/1999/xlink" x="0px" y="0px"
	 viewBox="0 0 279.5 271.3" style="enable-background:new 0 0 279.5 271.3;" xml:space="preserve">
<style type="text/css">
	.st0{fill-rule:evenodd;clip-rule:evenodd;fill:#D28288;}
	.st1{fill-rule:evenodd;clip-rule:evenodd;fill:#FADCDC;}
	.st2{fill-rule:evenodd;clip-rule:evenodd;fill:#C1CC97;}
</style>
<path class="st0" d="M140.6,120.8C99.2,119.5,64.9,45,79.4,19.2C99.1-16,135.6,8,139.7,8c4.1,0,40.6-24.1,60.3,11.1
	C214.5,45,182,119.5,140.6,120.8L140.6,120.8z"/>
<path class="st0" d="M136.8,151.5c30.5,28,8,106.8-19.8,117c-37.9,13.8-49.8-28.2-53-30.9c-3.1-2.7-46.4-8.2-38.5-47.7
	C31.3,160.9,104.5,125.6,136.8,151.5L136.8,151.5z"/>
<path class="st0" d="M145.2,153c32-26.3,106.9,7.1,113.1,36.1c8.4,39.5-34.9,45.4-38,48.1c-3.1,2.7-14.6,44.8-52.7,31.4
	C139.6,258.7,115,181.3,145.2,153L145.2,153z"/>
<path class="st0" d="M153.9,131.7c-11.5-39.8,48.8-95.4,77.8-89.6c39.6,7.9,27.9,50,29.2,53.9c1.3,3.9,35.4,31.2,8,60.8
	C248.8,178.6,167.9,170.6,153.9,131.7L153.9,131.7z"/>
<path class="st0" d="M126.2,130c-14.2,38.9-95.6,48.4-115.7,26.6c-27.3-29.7,6.9-56.8,8.2-60.8C20,91.9,8.5,49.8,48,42
	C77.1,36.2,137.8,90.3,126.2,130L126.2,130z"/>
<path class="st1" d="M146.2,102.2c2.2-5.6,4.9-10.5,7.9-13.1c1.1,4.4,0.2,11-1.6,17.9c10.5-17.5,25.8-37.2,38.4-42.5
	c-1.1,14.3-16.2,36.1-30,51.8c6.7-4.4,13.7-7.9,18.8-8.1c-2.3,5.2-3.4,9.2-10.9,14.1c17.3-5.7,42-11.3,57.2-10
	c-13.3,9.9-35.7,16.5-52.1,20.7c4.1,0.8,13,1.6,15.5,3.2c-2.6,1.5-7.7,3.4-11.9,3.8c18.2,4.6,37.6,12,45.7,21.1
	c-13.9,3.6-39.4-3.8-58.7-11.8c6.3,4.9,11.9,10.5,13.7,15.2c-5.2-0.5-12.2-4.5-18.7-9.3c12.9,16.5,27,39.3,27.3,53.7
	c-11.3-5.4-24-23-33.4-39.8c0.9,4.8,1.1,9.2,0.3,12.5c-2.7-2.4-5.1-6.7-7.2-11.6c1.3,18.5,0.5,39.6-5.2,51h-1.9
	c-6.6-12.6-7.2-37.1-5.6-56.8c-2.7,7.2-6.1,13.7-9.9,16.9c-1-4.7,0.2-11.6,2.4-18.7c-11.2,17.2-27.5,36.9-40.6,41.7
	c1.4-12.6,14.1-30.6,27-45.1c-4.5,2.6-8.8,4.3-12.3,4.6c1.3-3.1,4.2-6.5,7.8-9.8c-17.6,7.6-38.5,13.9-50.7,11.4
	c8.9-11.2,33.7-20.8,53.9-26c-8-0.1-15.8-1.2-20.1-3.9c4.6-2.8,12.8-3.8,21.2-3.9c-20.3-5.4-45.7-15.4-54.7-26.9
	c13.4-2.6,36.7,5.3,55.1,14c-5.2-4.6-9.4-9.5-10.9-13.7c3.6,0.5,7.9,2.6,12.3,5.5c-12-15.3-23.8-34.2-24.5-46.9
	c12.2,5.4,26.5,24.4,36.6,41.6c-1.5-6.2-2.1-12-1-16c2.9,2.6,5.6,7.3,7.7,12.8c-1.4-19.7-0.3-42.8,6.5-54
	C146.6,59.1,147.6,82.4,146.2,102.2L146.2,102.2z"/>
<path class="st2" d="M139.8,109.6c14.2,0,25.7,11.5,25.7,25.7c0,14.2-11.5,25.7-25.7,25.7c-14.2,0-25.7-11.5-25.7-25.7
	C114,121.1,125.5,109.6,139.8,109.6L139.8,109.6z"/>
</svg>
