<?xml version="1.0" encoding="utf-8"?>
<!-- Generator: Adobe Illustrator 19.1.0, SVG Export Plug-In . SVG Version: 6.00 Build 0)  -->
<svg version="1.1" id="图层_1" xmlns="http://www.w3.org/2000/svg" xmlns:xlink="http://www.w3.org/1999/xlink" x="0px" y="0px"
	 viewBox="0 0 302.4 293.1" style="enable-background:new 0 0 302.4 293.1;" xml:space="preserve">
<style type="text/css">
	.st0{fill-rule:evenodd;clip-rule:evenodd;fill:#FADCDC;}
	.st1{fill-rule:evenodd;clip-rule:evenodd;fill:#D28288;}
	.st2{fill-rule:evenodd;clip-rule:evenodd;fill:#E6C88D;}
</style>
<path class="st0" d="M148.1,0c27.8-0.7,51.2,31.2,52.2,71.4c1,40.1-20.7,73.2-48.5,74C124,146,100.7,114.1,99.6,74
	C98.6,33.8,120.3,0.7,148.1,0L148.1,0z"/>
<path class="st0" d="M300.3,104.7c9.3,26.2-13.9,58.3-51.7,71.7c-37.8,13.4-76,3-85.3-23.3C154,127,177.2,94.9,215,81.5
	C252.9,68.1,291.1,78.5,300.3,104.7L300.3,104.7z"/>
<path class="st0" d="M247.8,281.9c-22.1,16.9-59.8,4.8-84.2-27c-24.4-31.9-26.3-71.4-4.2-88.3c22.1-16.9,59.8-4.8,84.2,27
	C268,225.4,269.9,264.9,247.8,281.9L247.8,281.9z"/>
<path class="st0" d="M63.1,286.6c-22.9-15.8-23.1-55.4-0.3-88.4c22.7-33.1,59.8-47.1,82.7-31.3c22.9,15.8,23.1,55.4,0.3,88.4
	C123,288.4,86,302.4,63.1,286.6L63.1,286.6z"/>
<path class="st0" d="M1.5,112.4c7.9-26.7,45.5-39,84-27.6c38.5,11.4,63.3,42.3,55.4,69c-7.9,26.7-45.5,39-84,27.6
	C18.3,170-6.4,139.1,1.5,112.4L1.5,112.4z"/>
<path class="st1" d="M149.4,51.9c17.9-0.5,33,20.1,33.6,45.9c0.7,25.8-13.3,47.1-31.2,47.6c-17.9,0.5-32.9-20.1-33.6-45.9
	C117.6,73.7,131.5,52.4,149.4,51.9L149.4,51.9z"/>
<path class="st1" d="M247.4,119.3c6,16.9-8.9,37.5-33.3,46.2c-24.4,8.6-48.9,1.9-54.9-15c-6-16.9,8.9-37.5,33.3-46.2
	C216.9,95.7,241.5,102.4,247.4,119.3L247.4,119.3z"/>
<path class="st1" d="M213.6,233.3c-14.2,10.9-38.5,3.1-54.2-17.4c-15.7-20.5-16.9-46-2.7-56.8c14.2-10.9,38.5-3.1,54.2,17.4
	C226.6,197,227.8,222.4,213.6,233.3L213.6,233.3z"/>
<path class="st1" d="M94.7,236.4c-14.8-10.1-14.8-35.6-0.2-56.9c14.6-21.3,38.5-30.3,53.2-20.2c14.8,10.1,14.8,35.6,0.2,56.9
	C133.3,237.5,109.5,246.5,94.7,236.4L94.7,236.4z"/>
<path class="st1" d="M55.1,124.3c5.1-17.2,29.3-25.1,54.1-17.8c24.8,7.3,40.7,27.2,35.6,44.4c-5.1,17.2-29.3,25.1-54.1,17.8
	C65.9,161.3,50,141.4,55.1,124.3L55.1,124.3z"/>
<path class="st2" d="M151,113.2c24.3-0.6,44.5,18.5,45.1,42.8c0.6,24.3-18.5,44.5-42.8,45.1c-24.3,0.6-44.5-18.5-45.1-42.8
	C107.6,134,126.8,113.8,151,113.2L151,113.2z"/>
</svg>
